STARTFONT 2.1
FONT -FontForge-Satisfy-Book-R-Normal--18-180-72-72-P-78-ISO10646-1
SIZE 18 72 72
FONTBOUNDINGBOX 21 26 -4 -9
COMMENT "Generated by fontforge, http://fontforge.sourceforge.net"
COMMENT "Copyright (c) 2011 by Font Diner, Inc. All rights reserved."
STARTPROPERTIES 39
FOUNDRY "FontForge"
FAMILY_NAME "Satisfy"
WEIGHT_NAME "Book"
SLANT "R"
SETWIDTH_NAME "Normal"
ADD_STYLE_NAME ""
PIXEL_SIZE 18
POINT_SIZE 180
RESOLUTION_X 72
RESOLUTION_Y 72
SPACING "P"
AVERAGE_WIDTH 78
CHARSET_REGISTRY "ISO10646"
CHARSET_ENCODING "1"
FONTNAME_REGISTRY ""
CHARSET_COLLECTIONS "ISO10646-1"
FONT_NAME "Satisfy-Regular"
FACE_NAME "Satisfy Regular"
COPYRIGHT "Copyright (c) 2011 by Font Diner, Inc. All rights reserved."
FONT_VERSION "1.001"
FONT_ASCENT 14
FONT_DESCENT 4
UNDERLINE_POSITION -2
UNDERLINE_THICKNESS 1
X_HEIGHT 6
CAP_HEIGHT 12
RAW_ASCENT 799
RAW_DESCENT 200
NORM_SPACE 5
RELATIVE_WEIGHT 40
RELATIVE_SETWIDTH 50
SUPERSCRIPT_X 0
SUPERSCRIPT_Y 8
SUPERSCRIPT_SIZE 11
SUBSCRIPT_X 0
SUBSCRIPT_Y 2
SUBSCRIPT_SIZE 11
AVG_LOWERCASE_WIDTH 73
AVG_UPPERCASE_WIDTH 101
ENDPROPERTIES
CHARS 227
STARTCHAR space
ENCODING 32
SWIDTH 280 0
DWIDTH 5 0
BBX 1 1 0 0
BITMAP
00
ENDCHAR
STARTCHAR exclam
ENCODING 33
SWIDTH 249 0
DWIDTH 4 0
BBX 5 13 0 0
BITMAP
18
10
30
30
30
20
20
60
60
40
80
00
C0
ENDCHAR
STARTCHAR quotedbl
ENCODING 34
SWIDTH 249 0
DWIDTH 4 0
BBX 5 5 1 8
BITMAP
58
50
D0
B0
B0
ENDCHAR
STARTCHAR numbersign
ENCODING 35
SWIDTH 417 0
DWIDTH 8 0
BBX 8 9 0 2
BITMAP
1A
12
7F
A4
24
FE
C8
48
58
ENDCHAR
STARTCHAR dollar
ENCODING 36
SWIDTH 292 0
DWIDTH 5 0
BBX 7 13 -1 0
BITMAP
04
0C
32
22
26
30
10
18
48
C8
C8
70
20
ENDCHAR
STARTCHAR percent
ENCODING 37
SWIDTH 574 0
DWIDTH 10 0
BBX 11 13 0 0
BITMAP
3860
6880
4980
4900
4A00
7400
0C00
0B80
1280
34C0
2480
6480
C700
ENDCHAR
STARTCHAR ampersand
ENCODING 38
SWIDTH 460 0
DWIDTH 8 0
BBX 9 14 -1 -1
BITMAP
0700
0D00
0900
0A00
0C00
1800
3800
2C00
6C00
CC80
CD00
C600
7E00
0700
ENDCHAR
STARTCHAR quotesingle
ENCODING 39
SWIDTH 113 0
DWIDTH 2 0
BBX 2 5 1 8
BITMAP
40
40
C0
80
80
ENDCHAR
STARTCHAR parenleft
ENCODING 40
SWIDTH 234 0
DWIDTH 4 0
BBX 6 17 0 -2
BITMAP
04
08
18
10
30
20
60
40
40
40
C0
C0
C0
C0
C0
40
40
ENDCHAR
STARTCHAR parenright
ENCODING 41
SWIDTH 204 0
DWIDTH 4 0
BBX 5 17 -2 -2
BITMAP
08
08
08
08
08
08
08
08
08
18
10
10
30
20
60
40
80
ENDCHAR
STARTCHAR asterisk
ENCODING 42
SWIDTH 327 0
DWIDTH 6 0
BBX 6 6 1 7
BITMAP
10
90
FC
30
D8
50
ENDCHAR
STARTCHAR plus
ENCODING 43
SWIDTH 350 0
DWIDTH 6 0
BBX 6 7 0 3
BITMAP
10
10
10
FC
30
20
20
ENDCHAR
STARTCHAR comma
ENCODING 44
SWIDTH 200 0
DWIDTH 4 0
BBX 3 3 -1 -2
BITMAP
E0
40
40
ENDCHAR
STARTCHAR hyphen
ENCODING 45
SWIDTH 353 0
DWIDTH 6 0
BBX 6 1 0 5
BITMAP
FC
ENDCHAR
STARTCHAR period
ENCODING 46
SWIDTH 213 0
DWIDTH 4 0
BBX 3 1 -1 0
BITMAP
E0
ENDCHAR
STARTCHAR slash
ENCODING 47
SWIDTH 262 0
DWIDTH 5 0
BBX 9 13 -2 0
BITMAP
0180
0100
0200
0200
0400
0C00
0800
1800
1000
3000
2000
6000
C000
ENDCHAR
STARTCHAR zero
ENCODING 48
SWIDTH 489 0
DWIDTH 9 0
BBX 7 13 1 0
BITMAP
1C
36
62
42
C2
C2
86
86
84
84
8C
98
F0
ENDCHAR
STARTCHAR one
ENCODING 49
SWIDTH 272 0
DWIDTH 5 0
BBX 5 13 0 0
BITMAP
18
30
10
30
30
20
20
20
60
40
40
C0
C0
ENDCHAR
STARTCHAR two
ENCODING 50
SWIDTH 448 0
DWIDTH 8 0
BBX 9 14 -1 -1
BITMAP
0F00
1980
1180
3180
0100
0300
0600
0400
1800
3000
6000
DE00
7E00
0200
ENDCHAR
STARTCHAR three
ENCODING 51
SWIDTH 462 0
DWIDTH 8 0
BBX 8 13 0 0
BITMAP
1E
33
63
73
02
04
18
16
06
06
C6
CC
F8
ENDCHAR
STARTCHAR four
ENCODING 52
SWIDTH 452 0
DWIDTH 8 0
BBX 8 13 0 0
BITMAP
07
06
0A
12
36
64
C4
FE
0C
0C
0C
0C
08
ENDCHAR
STARTCHAR five
ENCODING 53
SWIDTH 444 0
DWIDTH 8 0
BBX 8 13 0 0
BITMAP
1F
13
20
20
20
5C
76
62
02
44
C4
C8
F0
ENDCHAR
STARTCHAR six
ENCODING 54
SWIDTH 477 0
DWIDTH 9 0
BBX 7 13 1 0
BITMAP
1E
36
26
60
40
FC
E4
C4
84
84
8C
C8
70
ENDCHAR
STARTCHAR seven
ENCODING 55
SWIDTH 406 0
DWIDTH 7 0
BBX 7 13 1 0
BITMAP
7E
C2
04
0C
08
18
30
20
60
60
C0
C0
C0
ENDCHAR
STARTCHAR eight
ENCODING 56
SWIDTH 444 0
DWIDTH 8 0
BBX 8 13 0 0
BITMAP
0E
11
31
32
36
1C
38
6C
4C
C4
84
8C
F8
ENDCHAR
STARTCHAR nine
ENCODING 57
SWIDTH 462 0
DWIDTH 8 0
BBX 8 13 0 0
BITMAP
0E
12
21
21
63
43
46
6E
3A
06
4C
D8
70
ENDCHAR
STARTCHAR colon
ENCODING 58
SWIDTH 226 0
DWIDTH 4 0
BBX 4 5 -1 0
BITMAP
30
60
00
00
E0
ENDCHAR
STARTCHAR semicolon
ENCODING 59
SWIDTH 212 0
DWIDTH 4 0
BBX 4 7 -1 -2
BITMAP
70
60
00
00
E0
40
40
ENDCHAR
STARTCHAR less
ENCODING 60
SWIDTH 271 0
DWIDTH 5 0
BBX 5 7 0 2
BITMAP
18
20
C0
C0
40
60
20
ENDCHAR
STARTCHAR equal
ENCODING 61
SWIDTH 374 0
DWIDTH 7 0
BBX 7 4 0 4
BITMAP
7E
80
7C
C0
ENDCHAR
STARTCHAR greater
ENCODING 62
SWIDTH 250 0
DWIDTH 5 0
BBX 5 7 -1 2
BITMAP
30
10
18
18
30
60
C0
ENDCHAR
STARTCHAR question
ENCODING 63
SWIDTH 413 0
DWIDTH 7 0
BBX 8 14 0 -1
BITMAP
3F
61
61
01
03
06
1C
60
60
60
40
00
C0
80
ENDCHAR
STARTCHAR at
ENCODING 64
SWIDTH 648 0
DWIDTH 12 0
BBX 11 12 0 0
BITMAP
0700
18C0
2060
47A0
C9A0
9320
B120
A320
A260
9E40
4280
3B00
ENDCHAR
STARTCHAR A
ENCODING 65
SWIDTH 552 0
DWIDTH 10 0
BBX 11 17 -2 -4
BITMAP
00E0
0120
0220
0660
0460
0C40
0C40
0840
18C0
1FE0
F0C0
3080
3080
7080
6180
E180
00C0
ENDCHAR
STARTCHAR B
ENCODING 66
SWIDTH 607 0
DWIDTH 11 0
BBX 10 16 0 -3
BITMAP
1F80
38C0
3840
1840
10C0
1080
3180
2F00
3D00
6180
6080
6080
4180
C180
C700
FC00
ENDCHAR
STARTCHAR C
ENCODING 67
SWIDTH 548 0
DWIDTH 10 0
BBX 10 16 0 -3
BITMAP
0780
0CC0
18C0
30C0
20C0
6180
6000
4000
C000
C000
C000
C000
C100
C100
6200
3C00
ENDCHAR
STARTCHAR D
ENCODING 68
SWIDTH 632 0
DWIDTH 11 0
BBX 11 16 0 -3
BITMAP
1F00
3180
28C0
1840
1860
1060
3060
3060
3040
20C0
20C0
6180
6180
4300
C600
F800
ENDCHAR
STARTCHAR E
ENCODING 69
SWIDTH 523 0
DWIDTH 9 0
BBX 11 16 -1 -3
BITMAP
07C0
0C60
1860
1840
31C0
3000
1800
0A00
1E00
2000
6000
4080
C080
6100
6300
3E00
ENDCHAR
STARTCHAR F
ENCODING 70
SWIDTH 585 0
DWIDTH 11 0
BBX 9 16 1 -3
BITMAP
3F80
C080
C080
F180
4100
0300
0200
7F80
4400
0C00
0C00
1800
1800
1800
1800
3800
ENDCHAR
STARTCHAR G
ENCODING 71
SWIDTH 612 0
DWIDTH 11 0
BBX 10 16 0 -3
BITMAP
0780
0CC0
1840
10C0
30C0
3180
6000
6000
6040
C7C0
C080
C180
C100
4300
6600
3C00
ENDCHAR
STARTCHAR H
ENCODING 72
SWIDTH 649 0
DWIDTH 12 0
BBX 12 16 0 -3
BITMAP
0830
1820
1860
1060
1040
3040
30C0
27E0
79E0
6480
6380
6300
4300
C300
C300
C300
ENDCHAR
STARTCHAR I
ENCODING 73
SWIDTH 537 0
DWIDTH 10 0
BBX 11 16 -1 -3
BITMAP
01C0
0340
06C0
04C0
04C0
0480
0580
0580
0580
0FE0
7B00
C300
C200
C600
C400
7800
ENDCHAR
STARTCHAR J
ENCODING 74
SWIDTH 500 0
DWIDTH 9 0
BBX 12 16 -1 -3
BITMAP
07F0
0480
0080
0180
0180
0180
0100
0300
3300
7300
C200
C600
8600
8400
8C00
F800
ENDCHAR
STARTCHAR K
ENCODING 75
SWIDTH 497 0
DWIDTH 9 0
BBX 11 18 -1 -5
BITMAP
0C60
0860
1840
18C0
1080
1180
3300
3600
3800
7700
6300
6300
6300
4600
C600
C600
0600
03C0
ENDCHAR
STARTCHAR L
ENCODING 76
SWIDTH 492 0
DWIDTH 9 0
BBX 12 17 -2 -4
BITMAP
00E0
00B0
01A0
0160
03C0
2380
1F00
0200
0200
0600
0600
0400
0C00
7800
DC40
E7C0
0080
ENDCHAR
STARTCHAR M
ENCODING 77
SWIDTH 733 0
DWIDTH 13 0
BBX 15 16 -2 -3
BITMAP
0186
038E
038E
079E
0794
0534
0D2C
0D2C
2D48
4948
49C8
D998
9998
9198
F018
701C
ENDCHAR
STARTCHAR N
ENCODING 78
SWIDTH 541 0
DWIDTH 10 0
BBX 12 16 -1 -3
BITMAP
1870
1870
1850
18D0
1CE0
3DC0
2C80
2480
2580
6580
6500
4500
4500
C700
C700
E200
ENDCHAR
STARTCHAR O
ENCODING 79
SWIDTH 567 0
DWIDTH 10 0
BBX 9 16 0 -3
BITMAP
0F00
1D80
1080
3080
2080
6080
6080
4080
C180
C180
C180
C100
C300
C200
4600
7C00
ENDCHAR
STARTCHAR P
ENCODING 80
SWIDTH 552 0
DWIDTH 10 0
BBX 11 16 -1 -3
BITMAP
0FC0
3C60
2860
0860
0860
1860
10C0
1080
1300
3E00
3000
3000
2000
6000
6000
C000
ENDCHAR
STARTCHAR Q
ENCODING 81
SWIDTH 583 0
DWIDTH 11 0
BBX 10 16 0 -3
BITMAP
0F80
1880
30C0
30C0
60C0
60C0
40C0
40C0
C080
4180
6180
3300
0200
7E00
4E00
79C0
ENDCHAR
STARTCHAR R
ENCODING 82
SWIDTH 560 0
DWIDTH 10 0
BBX 11 17 -1 -4
BITMAP
0FC0
3C60
2C20
0820
0860
0860
1840
10C0
3F80
3E00
3200
3200
3300
2300
6300
E300
01C0
ENDCHAR
STARTCHAR S
ENCODING 83
SWIDTH 474 0
DWIDTH 9 0
BBX 10 16 -1 -3
BITMAP
0F80
18C0
10C0
30C0
3180
1800
1800
0C00
0600
0600
0200
2200
C200
C200
C400
7C00
ENDCHAR
STARTCHAR T
ENCODING 84
SWIDTH 423 0
DWIDTH 8 0
BBX 9 16 1 -3
BITMAP
FF80
D800
1800
1800
1000
3000
3000
2000
2000
6000
6000
6000
4000
4000
C000
C000
ENDCHAR
STARTCHAR U
ENCODING 85
SWIDTH 574 0
DWIDTH 10 0
BBX 11 16 0 -3
BITMAP
1860
1860
30C0
30C0
30C0
2080
6180
6180
4100
4100
C300
C300
C300
C700
CF00
7B00
ENDCHAR
STARTCHAR V
ENCODING 86
SWIDTH 503 0
DWIDTH 9 0
BBX 9 16 1 -3
BITMAP
6180
6180
4300
C300
C200
C600
8600
8400
8C00
8C00
8800
8800
9800
D000
7000
6000
ENDCHAR
STARTCHAR W
ENCODING 87
SWIDTH 817 0
DWIDTH 15 0
BBX 14 16 0 -3
BITMAP
180C
1084
3184
3184
2184
610C
610C
430C
4308
4318
C718
C710
C730
4920
5960
71C0
ENDCHAR
STARTCHAR X
ENCODING 88
SWIDTH 579 0
DWIDTH 10 0
BBX 13 16 -1 -3
BITMAP
3818
2C30
2460
24C0
3C80
0780
0700
0600
0600
0E00
0A00
1A00
1200
3310
6120
C1C0
ENDCHAR
STARTCHAR Y
ENCODING 89
SWIDTH 532 0
DWIDTH 10 0
BBX 10 16 0 -3
BITMAP
18C0
30C0
30C0
2080
6180
6180
6100
4300
4300
4500
7A00
3200
0200
0400
CC00
F800
ENDCHAR
STARTCHAR Z
ENCODING 90
SWIDTH 455 0
DWIDTH 8 0
BBX 10 16 -1 -3
BITMAP
1FC0
38C0
00C0
0180
0180
0300
0600
0C00
0800
1800
3000
6000
4000
C000
FF00
FE00
ENDCHAR
STARTCHAR bracketleft
ENCODING 91
SWIDTH 202 0
DWIDTH 4 0
BBX 6 17 -1 -2
BITMAP
0C
08
18
10
10
10
30
20
20
20
60
40
40
40
C0
C0
E0
ENDCHAR
STARTCHAR backslash
ENCODING 92
SWIDTH 273 0
DWIDTH 5 0
BBX 3 13 1 0
BITMAP
80
80
80
80
C0
C0
40
40
40
40
60
60
20
ENDCHAR
STARTCHAR bracketright
ENCODING 93
SWIDTH 216 0
DWIDTH 4 0
BBX 6 17 -2 -2
BITMAP
0C
04
04
04
04
0C
08
08
08
18
10
10
10
30
20
20
E0
ENDCHAR
STARTCHAR asciicircum
ENCODING 94
SWIDTH 287 0
DWIDTH 5 0
BBX 6 7 0 6
BITMAP
18
38
28
68
48
8C
08
ENDCHAR
STARTCHAR underscore
ENCODING 95
SWIDTH 439 0
DWIDTH 8 0
BBX 9 1 -2 0
BITMAP
FF80
ENDCHAR
STARTCHAR grave
ENCODING 96
SWIDTH 567 0
DWIDTH 10 0
BBX 3 2 5 10
BITMAP
C0
60
ENDCHAR
STARTCHAR a
ENCODING 97
SWIDTH 435 0
DWIDTH 8 0
BBX 9 7 0 0
BITMAP
3800
6C00
4C00
C880
8900
9900
EE00
ENDCHAR
STARTCHAR b
ENCODING 98
SWIDTH 415 0
DWIDTH 7 0
BBX 9 13 0 0
BITMAP
1000
3000
3000
3000
7000
6000
6400
4D80
CE00
8C00
8800
9800
7000
ENDCHAR
STARTCHAR c
ENCODING 99
SWIDTH 363 0
DWIDTH 7 0
BBX 8 7 0 0
BITMAP
38
58
D0
81
82
84
F8
ENDCHAR
STARTCHAR d
ENCODING 100
SWIDTH 483 0
DWIDTH 9 0
BBX 10 13 0 0
BITMAP
0100
0100
0300
0300
0300
0300
3E00
4E00
CC00
8440
8880
9900
EE00
ENDCHAR
STARTCHAR e
ENCODING 101
SWIDTH 372 0
DWIDTH 7 0
BBX 8 7 0 0
BITMAP
38
48
D0
E1
C2
C4
78
ENDCHAR
STARTCHAR f
ENCODING 102
SWIDTH 325 0
DWIDTH 6 0
BBX 10 21 -2 -8
BITMAP
0400
0C00
0400
0C00
0C00
0800
0800
0840
1F80
3000
3000
3000
2800
2400
2400
6400
4400
4C00
4800
D800
F000
ENDCHAR
STARTCHAR g
ENCODING 103
SWIDTH 459 0
DWIDTH 8 0
BBX 10 16 0 -9
BITMAP
3A00
4C00
CC00
84C0
8C80
CF00
FC00
1800
3800
7800
D000
9000
9000
B000
E000
6000
ENDCHAR
STARTCHAR h
ENCODING 104
SWIDTH 465 0
DWIDTH 8 0
BBX 10 12 0 0
BITMAP
3000
3000
3000
2000
2000
6C00
5400
6400
4C40
CC80
C900
8E00
ENDCHAR
STARTCHAR i
ENCODING 105
SWIDTH 274 0
DWIDTH 5 0
BBX 6 12 0 0
BITMAP
10
30
00
00
00
60
60
40
C4
C8
D0
60
ENDCHAR
STARTCHAR j
ENCODING 106
SWIDTH 267 0
DWIDTH 5 0
BBX 10 20 -4 -8
BITMAP
0100
0300
0000
0000
0000
0600
0600
0400
0440
0C80
0D00
0E00
0800
1800
3800
5000
D000
9000
B000
6000
ENDCHAR
STARTCHAR k
ENCODING 107
SWIDTH 440 0
DWIDTH 8 0
BBX 9 14 0 -1
BITMAP
1000
3000
3000
2000
2000
2000
4C00
5400
6C00
7880
A900
8900
9E00
0800
ENDCHAR
STARTCHAR l
ENCODING 108
SWIDTH 218 0
DWIDTH 4 0
BBX 4 12 0 0
BITMAP
30
30
30
20
60
60
60
40
40
C0
80
80
ENDCHAR
STARTCHAR m
ENCODING 109
SWIDTH 717 0
DWIDTH 13 0
BBX 14 7 0 0
BITMAP
2CC0
7FE0
6660
6644
C4C8
CCC8
C8F0
ENDCHAR
STARTCHAR n
ENCODING 110
SWIDTH 461 0
DWIDTH 8 0
BBX 10 7 0 0
BITMAP
6C00
7400
6400
4C40
CC80
8900
8E00
ENDCHAR
STARTCHAR o
ENCODING 111
SWIDTH 393 0
DWIDTH 7 0
BBX 9 7 0 0
BITMAP
7800
4880
C900
EE00
9800
9800
F000
ENDCHAR
STARTCHAR p
ENCODING 112
SWIDTH 451 0
DWIDTH 8 0
BBX 11 15 -2 -8
BITMAP
1B00
1D00
1900
1120
3320
3A40
3F80
2800
6000
6000
4000
4000
C000
C000
4000
ENDCHAR
STARTCHAR q
ENCODING 113
SWIDTH 462 0
DWIDTH 8 0
BBX 9 15 0 -8
BITMAP
3A00
6E00
CC00
C400
8C80
8C80
D900
2A00
0C00
1800
1000
3000
3000
3000
1000
ENDCHAR
STARTCHAR r
ENCODING 114
SWIDTH 406 0
DWIDTH 7 0
BBX 10 9 -1 -1
BITMAP
3000
3000
3C00
2400
4440
4880
9900
9E00
0800
ENDCHAR
STARTCHAR s
ENCODING 115
SWIDTH 351 0
DWIDTH 6 0
BBX 5 9 0 -1
BITMAP
30
70
30
50
90
18
C8
70
20
ENDCHAR
STARTCHAR t
ENCODING 116
SWIDTH 301 0
DWIDTH 5 0
BBX 9 12 -1 0
BITMAP
0800
1800
FF80
1800
1000
3000
3000
2100
2100
2200
2400
3800
ENDCHAR
STARTCHAR u
ENCODING 117
SWIDTH 468 0
DWIDTH 8 0
BBX 10 7 0 0
BITMAP
6400
4400
CC40
CC40
8880
8900
F600
ENDCHAR
STARTCHAR v
ENCODING 118
SWIDTH 427 0
DWIDTH 8 0
BBX 10 7 0 0
BITMAP
4600
CC00
CCC0
CF00
C800
D000
6000
ENDCHAR
STARTCHAR w
ENCODING 119
SWIDTH 646 0
DWIDTH 12 0
BBX 13 7 0 0
BITMAP
6440
4CC0
CCC8
C8F0
C880
9900
E700
ENDCHAR
STARTCHAR x
ENCODING 120
SWIDTH 399 0
DWIDTH 7 0
BBX 9 7 -1 0
BITMAP
6300
3600
1C00
1800
3080
6900
CE00
ENDCHAR
STARTCHAR y
ENCODING 121
SWIDTH 406 0
DWIDTH 7 0
BBX 7 15 0 -8
BITMAP
46
44
C4
CC
88
98
E8
18
18
10
10
30
30
30
20
ENDCHAR
STARTCHAR z
ENCODING 122
SWIDTH 448 0
DWIDTH 8 0
BBX 10 15 -1 -8
BITMAP
1F00
1300
0200
0600
0C40
1E80
1300
0E00
1200
2600
4400
4C00
C800
F800
6000
ENDCHAR
STARTCHAR braceleft
ENCODING 123
SWIDTH 243 0
DWIDTH 4 0
BBX 6 17 0 -2
BITMAP
0C
18
30
20
30
30
20
20
C0
40
40
40
C0
80
80
C0
40
ENDCHAR
STARTCHAR bar
ENCODING 124
SWIDTH 253 0
DWIDTH 5 0
BBX 5 13 0 0
BITMAP
18
10
30
30
20
20
20
60
40
40
40
C0
C0
ENDCHAR
STARTCHAR braceright
ENCODING 125
SWIDTH 243 0
DWIDTH 4 0
BBX 7 17 -2 -2
BITMAP
08
0C
06
04
04
08
08
08
0C
18
10
10
10
10
30
60
E0
ENDCHAR
STARTCHAR asciitilde
ENCODING 126
SWIDTH 329 0
DWIDTH 6 0
BBX 7 2 -1 5
BITMAP
FE
44
ENDCHAR
STARTCHAR uni00A0
ENCODING 160
SWIDTH 280 0
DWIDTH 5 0
BBX 1 1 0 0
BITMAP
00
ENDCHAR
STARTCHAR exclamdown
ENCODING 161
SWIDTH 249 0
DWIDTH 4 0
BBX 5 13 0 0
BITMAP
38
10
00
30
20
20
60
60
60
40
C0
C0
C0
ENDCHAR
STARTCHAR cent
ENCODING 162
SWIDTH 322 0
DWIDTH 6 0
BBX 6 13 0 0
BITMAP
08
08
34
6C
4C
C8
80
80
80
88
50
60
40
ENDCHAR
STARTCHAR sterling
ENCODING 163
SWIDTH 318 0
DWIDTH 6 0
BBX 7 11 -1 1
BITMAP
0E
12
12
34
20
64
38
60
40
40
FC
ENDCHAR
STARTCHAR currency
ENCODING 164
SWIDTH 347 0
DWIDTH 6 0
BBX 6 7 0 3
BITMAP
40
54
28
48
58
E8
08
ENDCHAR
STARTCHAR yen
ENCODING 165
SWIDTH 326 0
DWIDTH 6 0
BBX 7 11 0 1
BITMAP
42
46
64
28
38
30
78
A0
F0
60
40
ENDCHAR
STARTCHAR brokenbar
ENCODING 166
SWIDTH 253 0
DWIDTH 5 0
BBX 5 13 0 0
BITMAP
18
10
30
30
20
20
00
60
40
40
40
C0
C0
ENDCHAR
STARTCHAR section
ENCODING 167
SWIDTH 297 0
DWIDTH 5 0
BBX 7 13 -1 0
BITMAP
1E
32
36
10
08
34
44
44
38
10
48
C8
78
ENDCHAR
STARTCHAR dieresis
ENCODING 168
SWIDTH 567 0
DWIDTH 10 0
BBX 5 2 4 10
BITMAP
D8
90
ENDCHAR
STARTCHAR copyright
ENCODING 169
SWIDTH 456 0
DWIDTH 8 0
BBX 9 9 0 4
BITMAP
1E00
2100
4E80
5680
9080
9280
5D00
4200
3C00
ENDCHAR
STARTCHAR ordfeminine
ENCODING 170
SWIDTH 373 0
DWIDTH 7 0
BBX 8 10 -1 -1
BITMAP
08
3C
24
44
4D
49
76
00
FC
80
ENDCHAR
STARTCHAR guillemotleft
ENCODING 171
SWIDTH 346 0
DWIDTH 6 0
BBX 7 7 -1 0
BITMAP
12
24
68
D0
58
68
24
ENDCHAR
STARTCHAR logicalnot
ENCODING 172
SWIDTH 512 0
DWIDTH 9 0
BBX 9 4 0 3
BITMAP
FF80
0080
0100
0100
ENDCHAR
STARTCHAR sfthyphen
ENCODING 173
SWIDTH 353 0
DWIDTH 6 0
BBX 6 1 0 5
BITMAP
FC
ENDCHAR
STARTCHAR registered
ENCODING 174
SWIDTH 456 0
DWIDTH 8 0
BBX 9 9 0 4
BITMAP
1E00
2500
5A80
5480
9C80
9480
7500
4200
3C00
ENDCHAR
STARTCHAR macron
ENCODING 175
SWIDTH 567 0
DWIDTH 10 0
BBX 4 2 4 10
BITMAP
F0
80
ENDCHAR
STARTCHAR degree
ENCODING 176
SWIDTH 144 0
DWIDTH 3 0
BBX 3 2 1 10
BITMAP
E0
C0
ENDCHAR
STARTCHAR twosuperior
ENCODING 178
SWIDTH 268 0
DWIDTH 5 0
BBX 5 8 0 5
BITMAP
38
68
08
18
10
60
40
F8
ENDCHAR
STARTCHAR threesuperior
ENCODING 179
SWIDTH 262 0
DWIDTH 5 0
BBX 5 8 0 5
BITMAP
38
68
28
10
38
08
D0
70
ENDCHAR
STARTCHAR acute
ENCODING 180
SWIDTH 567 0
DWIDTH 10 0
BBX 3 2 5 10
BITMAP
60
C0
ENDCHAR
STARTCHAR mu
ENCODING 181
SWIDTH 453 0
DWIDTH 8 0
BBX 10 10 -2 -4
BITMAP
3300
2200
2600
2640
6680
7B80
4000
C000
C000
8000
ENDCHAR
STARTCHAR paragraph
ENCODING 182
SWIDTH 411 0
DWIDTH 7 0
BBX 8 13 1 0
BITMAP
0A
7F
FA
F4
F4
F4
74
28
28
28
28
48
50
ENDCHAR
STARTCHAR periodcentered
ENCODING 183
SWIDTH 168 0
DWIDTH 3 0
BBX 3 2 0 5
BITMAP
60
C0
ENDCHAR
STARTCHAR cedilla
ENCODING 184
SWIDTH 567 0
DWIDTH 10 0
BBX 3 4 5 -2
BITMAP
C0
80
60
C0
ENDCHAR
STARTCHAR onesuperior
ENCODING 185
SWIDTH 150 0
DWIDTH 3 0
BBX 2 8 1 5
BITMAP
C0
40
40
40
80
80
80
80
ENDCHAR
STARTCHAR ordmasculine
ENCODING 186
SWIDTH 319 0
DWIDTH 6 0
BBX 8 9 -1 -1
BITMAP
38
65
66
5C
48
70
00
F8
80
ENDCHAR
STARTCHAR guillemotright
ENCODING 187
SWIDTH 346 0
DWIDTH 6 0
BBX 7 7 -1 0
BITMAP
58
28
24
36
2C
48
B0
ENDCHAR
STARTCHAR onequarter
ENCODING 188
SWIDTH 579 0
DWIDTH 10 0
BBX 11 13 -1 0
BITMAP
3060
10C0
1080
1100
2300
2260
24C0
2DC0
0B40
13C0
30C0
2080
C080
ENDCHAR
STARTCHAR onehalf
ENCODING 189
SWIDTH 603 0
DWIDTH 11 0
BBX 10 14 0 -1
BITMAP
30C0
2180
2100
2200
6600
45C0
4B40
5940
10C0
2080
6100
4200
C780
0040
ENDCHAR
STARTCHAR threequarters
ENCODING 190
SWIDTH 669 0
DWIDTH 12 0
BBX 12 13 0 0
BITMAP
3830
6840
28C0
1080
3900
0B20
D260
74A0
0D20
0BE0
1060
3040
6040
ENDCHAR
STARTCHAR questiondown
ENCODING 191
SWIDTH 413 0
DWIDTH 7 0
BBX 9 14 -1 -1
BITMAP
0380
0000
0100
0300
0200
0600
1C00
3000
6000
C400
C200
C600
7C00
1000
ENDCHAR
STARTCHAR Agrave
ENCODING 192
SWIDTH 552 0
DWIDTH 10 0
BBX 11 21 -2 -4
BITMAP
00C0
0020
0000
0000
00E0
0120
0220
0660
0460
0C40
0C40
0840
18C0
1FE0
F0C0
3080
3080
7080
6180
E180
00C0
ENDCHAR
STARTCHAR Aacute
ENCODING 193
SWIDTH 552 0
DWIDTH 10 0
BBX 11 20 -2 -4
BITMAP
0060
00C0
0000
00E0
0120
0220
0660
0460
0C40
0C40
0840
18C0
1FE0
F0C0
3080
3080
7080
6180
E180
00C0
ENDCHAR
STARTCHAR Acircumflex
ENCODING 194
SWIDTH 552 0
DWIDTH 10 0
BBX 12 20 -2 -4
BITMAP
0060
0190
0000
00E0
0120
0220
0660
0460
0C40
0C40
0840
18C0
1FE0
F0C0
3080
3080
7080
6180
E180
00C0
ENDCHAR
STARTCHAR Atilde
ENCODING 195
SWIDTH 552 0
DWIDTH 10 0
BBX 13 20 -2 -4
BITMAP
01C8
0130
0000
00E0
0120
0220
0660
0460
0C40
0C40
0840
18C0
1FE0
F0C0
3080
3080
7080
6180
E180
00C0
ENDCHAR
STARTCHAR Adieresis
ENCODING 196
SWIDTH 552 0
DWIDTH 10 0
BBX 13 20 -2 -4
BITMAP
00D8
0090
0000
00E0
0120
0220
0660
0460
0C40
0C40
0840
18C0
1FE0
F0C0
3080
3080
7080
6180
E180
00C0
ENDCHAR
STARTCHAR Aring
ENCODING 197
SWIDTH 552 0
DWIDTH 10 0
BBX 11 19 -2 -4
BITMAP
0060
00E0
00E0
0120
0220
0660
0460
0C40
0C40
0840
18C0
1FE0
F0C0
3080
3080
7080
6180
E180
00C0
ENDCHAR
STARTCHAR AE
ENCODING 198
SWIDTH 869 0
DWIDTH 16 0
BBX 18 17 -2 -4
BITMAP
00E780
0138C0
0230C0
0670C0
047180
0C7000
0C7000
085C00
18FE00
1FE000
F0C000
30C080
30C100
70C100
61E200
E1FC00
00C000
ENDCHAR
STARTCHAR Ccedilla
ENCODING 199
SWIDTH 548 0
DWIDTH 10 0
BBX 10 20 0 -7
BITMAP
0780
0CC0
18C0
30C0
20C0
6180
6000
4000
C000
C000
C000
C000
C100
C100
6200
3C00
1000
3800
0800
3000
ENDCHAR
STARTCHAR Egrave
ENCODING 200
SWIDTH 523 0
DWIDTH 9 0
BBX 11 19 -1 -3
BITMAP
0380
00C0
0000
07C0
0C60
1860
1840
31C0
3000
1800
0A00
1E00
2000
6000
4080
C080
6100
6300
3E00
ENDCHAR
STARTCHAR Eacute
ENCODING 201
SWIDTH 523 0
DWIDTH 9 0
BBX 11 19 -1 -3
BITMAP
00C0
0180
0000
07C0
0C60
1860
1840
31C0
3000
1800
0A00
1E00
2000
6000
4080
C080
6100
6300
3E00
ENDCHAR
STARTCHAR Ecircumflex
ENCODING 202
SWIDTH 523 0
DWIDTH 9 0
BBX 11 19 -1 -3
BITMAP
01C0
0360
0000
07C0
0C60
1860
1840
31C0
3000
1800
0A00
1E00
2000
6000
4080
C080
6100
6300
3E00
ENDCHAR
STARTCHAR Edieresis
ENCODING 203
SWIDTH 523 0
DWIDTH 9 0
BBX 11 19 -1 -3
BITMAP
0160
0240
0000
07C0
0C60
1860
1840
31C0
3000
1800
0A00
1E00
2000
6000
4080
C080
6100
6300
3E00
ENDCHAR
STARTCHAR Igrave
ENCODING 204
SWIDTH 537 0
DWIDTH 10 0
BBX 11 19 -1 -3
BITMAP
0180
00C0
0000
01C0
0340
06C0
04C0
04C0
0480
0580
0580
0580
0FE0
7B00
C300
C200
C600
C400
7800
ENDCHAR
STARTCHAR Iacute
ENCODING 205
SWIDTH 537 0
DWIDTH 10 0
BBX 11 19 -1 -3
BITMAP
0060
0180
0000
01C0
0340
06C0
04C0
04C0
0480
0580
0580
0580
0FE0
7B00
C300
C200
C600
C400
7800
ENDCHAR
STARTCHAR Icircumflex
ENCODING 206
SWIDTH 537 0
DWIDTH 10 0
BBX 12 19 -1 -3
BITMAP
00E0
0130
0000
01C0
0340
06C0
04C0
04C0
0480
0580
0580
0580
0FE0
7B00
C300
C200
C600
C400
7800
ENDCHAR
STARTCHAR Idieresis
ENCODING 207
SWIDTH 537 0
DWIDTH 10 0
BBX 12 19 -1 -3
BITMAP
01B0
0120
0000
01C0
0340
06C0
04C0
04C0
0480
0580
0580
0580
0FE0
7B00
C300
C200
C600
C400
7800
ENDCHAR
STARTCHAR Eth
ENCODING 208
SWIDTH 632 0
DWIDTH 11 0
BBX 11 16 0 -3
BITMAP
1F00
3180
28C0
1840
1860
1060
3060
FC60
F040
20C0
20C0
6180
6180
4300
C600
F800
ENDCHAR
STARTCHAR Ntilde
ENCODING 209
SWIDTH 541 0
DWIDTH 10 0
BBX 12 19 -1 -3
BITMAP
0720
04C0
0000
1870
1870
1850
18D0
1CE0
3DC0
2C80
2480
2580
6580
6500
4500
4500
C700
C700
E200
ENDCHAR
STARTCHAR Ograve
ENCODING 210
SWIDTH 567 0
DWIDTH 10 0
BBX 9 19 0 -3
BITMAP
0700
0180
0000
0F00
1D80
1080
3080
2080
6080
6080
4080
C180
C180
C180
C100
C300
C200
4600
7C00
ENDCHAR
STARTCHAR Oacute
ENCODING 211
SWIDTH 567 0
DWIDTH 10 0
BBX 9 19 0 -3
BITMAP
0180
0700
0000
0F00
1D80
1080
3080
2080
6080
6080
4080
C180
C180
C180
C100
C300
C200
4600
7C00
ENDCHAR
STARTCHAR Ocircumflex
ENCODING 212
SWIDTH 567 0
DWIDTH 10 0
BBX 9 19 0 -3
BITMAP
0380
0C80
0000
0F00
1D80
1080
3080
2080
6080
6080
4080
C180
C180
C180
C100
C300
C200
4600
7C00
ENDCHAR
STARTCHAR Otilde
ENCODING 213
SWIDTH 567 0
DWIDTH 10 0
BBX 10 19 0 -3
BITMAP
0E40
0980
0000
0F00
1D80
1080
3080
2080
6080
6080
4080
C180
C180
C180
C100
C300
C200
4600
7C00
ENDCHAR
STARTCHAR Odieresis
ENCODING 214
SWIDTH 567 0
DWIDTH 10 0
BBX 9 19 0 -3
BITMAP
0680
0580
0000
0F00
1D80
1080
3080
2080
6080
6080
4080
C180
C180
C180
C100
C300
C200
4600
7C00
ENDCHAR
STARTCHAR multiply
ENCODING 215
SWIDTH 281 0
DWIDTH 5 0
BBX 6 6 0 3
BITMAP
4C
78
30
60
E0
90
ENDCHAR
STARTCHAR Oslash
ENCODING 216
SWIDTH 597 0
DWIDTH 11 0
BBX 11 18 0 -4
BITMAP
0060
0FC0
1CC0
1180
3180
23C0
62C0
6680
6480
4880
5980
D180
F100
E300
6200
4600
FC00
8000
ENDCHAR
STARTCHAR Ugrave
ENCODING 217
SWIDTH 574 0
DWIDTH 10 0
BBX 11 19 0 -3
BITMAP
0700
0180
0000
1860
1860
30C0
30C0
30C0
2080
6180
6180
4100
4100
C300
C300
C300
C700
CF00
7B00
ENDCHAR
STARTCHAR Uacute
ENCODING 218
SWIDTH 574 0
DWIDTH 10 0
BBX 11 19 0 -3
BITMAP
00C0
0300
0000
1860
1860
30C0
30C0
30C0
2080
6180
6180
4100
4100
C300
C300
C300
C700
CF00
7B00
ENDCHAR
STARTCHAR Ucircumflex
ENCODING 219
SWIDTH 574 0
DWIDTH 10 0
BBX 11 19 0 -3
BITMAP
0380
06C0
0000
1860
1860
30C0
30C0
30C0
2080
6180
6180
4100
4100
C300
C300
C300
C700
CF00
7B00
ENDCHAR
STARTCHAR Udieresis
ENCODING 220
SWIDTH 574 0
DWIDTH 10 0
BBX 11 19 0 -3
BITMAP
06C0
0480
0000
1860
1860
30C0
30C0
30C0
2080
6180
6180
4100
4100
C300
C300
C300
C700
CF00
7B00
ENDCHAR
STARTCHAR Yacute
ENCODING 221
SWIDTH 532 0
DWIDTH 10 0
BBX 10 19 0 -3
BITMAP
0180
0300
0000
18C0
30C0
30C0
2080
6180
6180
6100
4300
4300
4500
7A00
3200
0200
0400
CC00
F800
ENDCHAR
STARTCHAR Thorn
ENCODING 222
SWIDTH 569 0
DWIDTH 10 0
BBX 11 16 -1 -3
BITMAP
0C00
0800
1800
1F80
38C0
7060
3060
3060
3040
20C0
2180
6300
7C00
6000
4000
C000
ENDCHAR
STARTCHAR germandbls
ENCODING 223
SWIDTH 495 0
DWIDTH 9 0
BBX 10 20 -2 -8
BITMAP
0380
0680
0C80
0980
0900
1B00
1100
1180
3080
E0C0
3640
2B80
6900
4400
4400
4C00
C800
9800
B000
E000
ENDCHAR
STARTCHAR agrave
ENCODING 224
SWIDTH 435 0
DWIDTH 8 0
BBX 9 11 0 0
BITMAP
3000
0800
0000
0000
3800
6C00
4C00
C880
8900
9900
EE00
ENDCHAR
STARTCHAR aacute
ENCODING 225
SWIDTH 435 0
DWIDTH 8 0
BBX 9 11 0 0
BITMAP
0C00
1800
0000
0000
3800
6C00
4C00
C880
8900
9900
EE00
ENDCHAR
STARTCHAR acircumflex
ENCODING 226
SWIDTH 435 0
DWIDTH 8 0
BBX 9 10 0 0
BITMAP
1C00
2600
0000
3800
6C00
4C00
C880
8900
9900
EE00
ENDCHAR
STARTCHAR atilde
ENCODING 227
SWIDTH 435 0
DWIDTH 8 0
BBX 9 10 0 0
BITMAP
3A00
4400
0000
3800
6C00
4C00
C880
8900
9900
EE00
ENDCHAR
STARTCHAR adieresis
ENCODING 228
SWIDTH 435 0
DWIDTH 8 0
BBX 9 10 0 0
BITMAP
1600
2400
0000
3800
6C00
4C00
C880
8900
9900
EE00
ENDCHAR
STARTCHAR aring
ENCODING 229
SWIDTH 435 0
DWIDTH 8 0
BBX 9 10 0 0
BITMAP
1800
1800
0000
3800
6C00
4C00
C880
8900
9900
EE00
ENDCHAR
STARTCHAR ae
ENCODING 230
SWIDTH 594 0
DWIDTH 11 0
BBX 12 7 0 0
BITMAP
3B80
6C80
4D00
CE10
8C20
9C40
EF80
ENDCHAR
STARTCHAR ccedilla
ENCODING 231
SWIDTH 363 0
DWIDTH 7 0
BBX 8 11 0 -4
BITMAP
38
58
D0
81
82
84
F8
20
70
10
60
ENDCHAR
STARTCHAR egrave
ENCODING 232
SWIDTH 372 0
DWIDTH 7 0
BBX 8 11 0 0
BITMAP
30
08
00
00
38
48
D0
E1
C2
C4
78
ENDCHAR
STARTCHAR eacute
ENCODING 233
SWIDTH 372 0
DWIDTH 7 0
BBX 8 11 0 0
BITMAP
0C
38
00
00
38
48
D0
E1
C2
C4
78
ENDCHAR
STARTCHAR ecircumflex
ENCODING 234
SWIDTH 372 0
DWIDTH 7 0
BBX 8 10 0 0
BITMAP
1C
64
00
38
48
D0
E1
C2
C4
78
ENDCHAR
STARTCHAR edieresis
ENCODING 235
SWIDTH 372 0
DWIDTH 7 0
BBX 8 10 0 0
BITMAP
34
2C
00
38
48
D0
E1
C2
C4
78
ENDCHAR
STARTCHAR igrave
ENCODING 236
SWIDTH 274 0
DWIDTH 5 0
BBX 6 11 0 0
BITMAP
C0
20
00
00
60
60
40
C4
C8
D0
60
ENDCHAR
STARTCHAR iacute
ENCODING 237
SWIDTH 274 0
DWIDTH 5 0
BBX 6 11 0 0
BITMAP
08
30
00
00
60
60
40
C4
C8
D0
60
ENDCHAR
STARTCHAR icircumflex
ENCODING 238
SWIDTH 274 0
DWIDTH 5 0
BBX 6 10 0 0
BITMAP
30
C8
00
60
60
40
C4
C8
D0
60
ENDCHAR
STARTCHAR idieresis
ENCODING 239
SWIDTH 274 0
DWIDTH 5 0
BBX 6 10 0 0
BITMAP
48
D0
00
60
60
40
C4
C8
D0
60
ENDCHAR
STARTCHAR eth
ENCODING 240
SWIDTH 393 0
DWIDTH 7 0
BBX 9 12 0 0
BITMAP
0800
0800
1F00
3400
0400
7C00
4C80
CD00
EE00
9800
9800
F000
ENDCHAR
STARTCHAR ntilde
ENCODING 241
SWIDTH 461 0
DWIDTH 8 0
BBX 10 10 0 0
BITMAP
3A00
2400
0000
6C00
7400
6400
4C40
CC80
8900
8E00
ENDCHAR
STARTCHAR ograve
ENCODING 242
SWIDTH 393 0
DWIDTH 7 0
BBX 9 10 0 0
BITMAP
3000
0800
0000
7800
4880
C900
EE00
9800
9800
F000
ENDCHAR
STARTCHAR oacute
ENCODING 243
SWIDTH 393 0
DWIDTH 7 0
BBX 9 10 0 0
BITMAP
0C00
3800
0000
7800
4880
C900
EE00
9800
9800
F000
ENDCHAR
STARTCHAR ocircumflex
ENCODING 244
SWIDTH 393 0
DWIDTH 7 0
BBX 9 10 0 0
BITMAP
3800
4C00
0000
7800
4880
C900
EE00
9800
9800
F000
ENDCHAR
STARTCHAR otilde
ENCODING 245
SWIDTH 393 0
DWIDTH 7 0
BBX 9 10 0 0
BITMAP
7400
4C00
0000
7800
4880
C900
EE00
9800
9800
F000
ENDCHAR
STARTCHAR odieresis
ENCODING 246
SWIDTH 393 0
DWIDTH 7 0
BBX 9 10 0 0
BITMAP
2400
6800
0000
7800
4880
C900
EE00
9800
9800
F000
ENDCHAR
STARTCHAR divide
ENCODING 247
SWIDTH 350 0
DWIDTH 6 0
BBX 6 5 0 4
BITMAP
18
00
FC
00
30
ENDCHAR
STARTCHAR oslash
ENCODING 248
SWIDTH 406 0
DWIDTH 7 0
BBX 10 9 -1 -1
BITMAP
0300
1E00
2440
6680
5700
4C00
4400
7800
C000
ENDCHAR
STARTCHAR ugrave
ENCODING 249
SWIDTH 468 0
DWIDTH 8 0
BBX 10 10 0 0
BITMAP
3000
0800
0000
6400
4400
CC40
CC40
8880
8900
F600
ENDCHAR
STARTCHAR uacute
ENCODING 250
SWIDTH 468 0
DWIDTH 8 0
BBX 10 10 0 0
BITMAP
0C00
1800
0000
6400
4400
CC40
CC40
8880
8900
F600
ENDCHAR
STARTCHAR ucircumflex
ENCODING 251
SWIDTH 468 0
DWIDTH 8 0
BBX 10 10 0 0
BITMAP
1C00
2600
0000
6400
4400
CC40
CC40
8880
8900
F600
ENDCHAR
STARTCHAR udieresis
ENCODING 252
SWIDTH 468 0
DWIDTH 8 0
BBX 10 10 0 0
BITMAP
3600
2400
0000
6400
4400
CC40
CC40
8880
8900
F600
ENDCHAR
STARTCHAR yacute
ENCODING 253
SWIDTH 406 0
DWIDTH 7 0
BBX 7 18 0 -8
BITMAP
04
18
00
46
44
C4
CC
88
98
E8
18
18
10
10
30
30
30
20
ENDCHAR
STARTCHAR thorn
ENCODING 254
SWIDTH 451 0
DWIDTH 8 0
BBX 11 20 -2 -8
BITMAP
0C00
0C00
0C00
0800
0800
1B00
1500
1900
1120
3320
3A40
3F80
2800
6000
6000
4000
4000
C000
C000
4000
ENDCHAR
STARTCHAR ydieresis
ENCODING 255
SWIDTH 406 0
DWIDTH 7 0
BBX 7 18 0 -8
BITMAP
34
2C
00
46
44
C4
CC
88
98
E8
18
18
10
10
30
30
30
20
ENDCHAR
STARTCHAR dotlessi
ENCODING 305
SWIDTH 274 0
DWIDTH 5 0
BBX 6 7 0 0
BITMAP
60
60
40
C4
C8
D0
60
ENDCHAR
STARTCHAR Lslash
ENCODING 321
SWIDTH 492 0
DWIDTH 9 0
BBX 12 17 -2 -4
BITMAP
00E0
00B0
01A0
0160
03C0
2380
1F00
0200
0380
1F00
1600
0400
0C00
7800
DC40
E7C0
0080
ENDCHAR
STARTCHAR lslash
ENCODING 322
SWIDTH 218 0
DWIDTH 4 0
BBX 6 12 -1 0
BITMAP
18
18
18
10
34
FC
B0
20
20
60
40
40
ENDCHAR
STARTCHAR OE
ENCODING 338
SWIDTH 918 0
DWIDTH 17 0
BBX 17 16 0 -3
BITMAP
0F1F00
1DB180
10E180
30E180
20C300
60C000
60E000
40BC00
C1F800
C1C000
C18000
C18100
C30200
C38200
47CC00
7CF800
ENDCHAR
STARTCHAR oe
ENCODING 339
SWIDTH 583 0
DWIDTH 11 0
BBX 12 7 0 0
BITMAP
7B80
4C80
CD00
BE10
9C20
9C40
F780
ENDCHAR
STARTCHAR Scaron
ENCODING 352
SWIDTH 474 0
DWIDTH 9 0
BBX 11 19 -1 -3
BITMAP
0360
0180
0000
0F80
18C0
10C0
30C0
3180
1800
1800
0C00
0600
0600
0200
2200
C200
C200
C400
7C00
ENDCHAR
STARTCHAR scaron
ENCODING 353
SWIDTH 351 0
DWIDTH 6 0
BBX 7 12 0 -1
BITMAP
2E
10
00
30
70
30
50
90
18
C8
70
20
ENDCHAR
STARTCHAR Ydieresis
ENCODING 376
SWIDTH 532 0
DWIDTH 10 0
BBX 10 19 0 -3
BITMAP
0680
0580
0000
18C0
30C0
30C0
2080
6180
6180
6100
4300
4300
4500
7A00
3200
0200
0400
CC00
F800
ENDCHAR
STARTCHAR Zcaron
ENCODING 381
SWIDTH 455 0
DWIDTH 8 0
BBX 11 19 -1 -3
BITMAP
03E0
0100
0000
1FC0
38C0
00C0
0180
0180
0300
0600
0C00
0800
1800
3000
6000
4000
C000
FF00
FE00
ENDCHAR
STARTCHAR zcaron
ENCODING 382
SWIDTH 349 0
DWIDTH 6 0
BBX 9 18 -2 -8
BITMAP
0F80
0600
0000
3E00
2200
0400
0C00
0880
3D00
1600
1C00
3400
4C00
C800
9800
9000
B000
E000
ENDCHAR
STARTCHAR circumflex
ENCODING 710
SWIDTH 567 0
DWIDTH 10 0
BBX 5 2 4 10
BITMAP
70
98
ENDCHAR
STARTCHAR caron
ENCODING 711
SWIDTH 567 0
DWIDTH 10 0
BBX 5 2 4 10
BITMAP
F8
60
ENDCHAR
STARTCHAR breve
ENCODING 728
SWIDTH 567 0
DWIDTH 10 0
BBX 5 2 4 10
BITMAP
98
F0
ENDCHAR
STARTCHAR dotaccent
ENCODING 729
SWIDTH 567 0
DWIDTH 10 0
BBX 2 2 5 10
BITMAP
40
80
ENDCHAR
STARTCHAR ring
ENCODING 730
SWIDTH 567 0
DWIDTH 10 0
BBX 2 2 5 10
BITMAP
C0
C0
ENDCHAR
STARTCHAR ogonek
ENCODING 731
SWIDTH 567 0
DWIDTH 10 0
BBX 4 3 4 -2
BITMAP
40
90
E0
ENDCHAR
STARTCHAR tilde
ENCODING 732
SWIDTH 567 0
DWIDTH 10 0
BBX 6 2 3 10
BITMAP
74
88
ENDCHAR
STARTCHAR hungarumlaut
ENCODING 733
SWIDTH 567 0
DWIDTH 10 0
BBX 6 2 3 10
BITMAP
2C
D8
ENDCHAR
STARTCHAR endash
ENCODING 8211
SWIDTH 353 0
DWIDTH 6 0
BBX 6 1 0 5
BITMAP
FC
ENDCHAR
STARTCHAR emdash
ENCODING 8212
SWIDTH 508 0
DWIDTH 9 0
BBX 9 1 0 5
BITMAP
FF80
ENDCHAR
STARTCHAR quoteleft
ENCODING 8216
SWIDTH 155 0
DWIDTH 3 0
BBX 2 4 1 8
BITMAP
40
80
C0
80
ENDCHAR
STARTCHAR quoteright
ENCODING 8217
SWIDTH 154 0
DWIDTH 3 0
BBX 2 4 1 8
BITMAP
C0
C0
40
80
ENDCHAR
STARTCHAR quotesinglbase
ENCODING 8218
SWIDTH 188 0
DWIDTH 3 0
BBX 2 4 -1 -2
BITMAP
40
C0
40
C0
ENDCHAR
STARTCHAR quotedblleft
ENCODING 8220
SWIDTH 289 0
DWIDTH 5 0
BBX 4 4 1 8
BITMAP
50
A0
F0
B0
ENDCHAR
STARTCHAR quotedblright
ENCODING 8221
SWIDTH 288 0
DWIDTH 5 0
BBX 5 4 1 8
BITMAP
D8
F8
50
A0
ENDCHAR
STARTCHAR quotedblbase
ENCODING 8222
SWIDTH 323 0
DWIDTH 6 0
BBX 5 4 -1 -2
BITMAP
58
D8
48
D0
ENDCHAR
STARTCHAR bullet
ENCODING 8226
SWIDTH 180 0
DWIDTH 3 0
BBX 3 4 0 3
BITMAP
E0
E0
E0
C0
ENDCHAR
STARTCHAR ellipsis
ENCODING 8230
SWIDTH 614 0
DWIDTH 11 0
BBX 10 1 -1 0
BITMAP
ECC0
ENDCHAR
STARTCHAR perthousand
ENCODING 8240
SWIDTH 851 0
DWIDTH 15 0
BBX 15 13 0 0
BITMAP
3860
6880
4980
4900
4A00
7400
0C00
0B9C
1296
34E6
24A4
64A4
C738
ENDCHAR
STARTCHAR guilsinglleft
ENCODING 8249
SWIDTH 202 0
DWIDTH 4 0
BBX 4 7 -1 0
BITMAP
10
20
60
C0
40
60
20
ENDCHAR
STARTCHAR guilsinglright
ENCODING 8250
SWIDTH 202 0
DWIDTH 4 0
BBX 4 7 -1 0
BITMAP
40
20
20
30
20
40
80
ENDCHAR
STARTCHAR fraction
ENCODING 8260
SWIDTH 600 0
DWIDTH 11 0
BBX 11 13 0 0
BITMAP
0060
00C0
0080
0100
0300
0200
0400
0C00
0800
1000
3000
2000
C000
ENDCHAR
STARTCHAR Euro
ENCODING 8364
SWIDTH 334 0
DWIDTH 6 0
BBX 8 11 -1 1
BITMAP
06
09
10
30
7C
20
FC
60
60
24
18
ENDCHAR
STARTCHAR minus
ENCODING 8722
SWIDTH 353 0
DWIDTH 6 0
BBX 6 1 0 5
BITMAP
FC
ENDCHAR
STARTCHAR fi
ENCODING 64257
SWIDTH 549 0
DWIDTH 10 0
BBX 13 21 -2 -8
BITMAP
0400
0C20
0460
0C00
0C00
0800
08C0
08C0
1F80
3188
3190
3120
28C0
2400
2400
6400
4400
4C00
4800
D800
F000
ENDCHAR
STARTCHAR fl
ENCODING 64258
SWIDTH 516 0
DWIDTH 9 0
BBX 11 21 -2 -8
BITMAP
0400
0C60
0460
0C60
0C60
0840
0840
08C0
1FC0
3080
3080
3180
2980
2400
2400
6400
4400
4C00
4800
D800
F000
ENDCHAR
STARTCHAR .notdef
ENCODING -1
SWIDTH 280 0
DWIDTH 5 0
BBX 1 1 0 0
BITMAP
00
ENDCHAR
ENDFONT
